<svg width="147" height="147" viewBox="0 0 147 147" fill="none" xmlns="http://www.w3.org/2000/svg">
<path d="M115.848 19.0535H30.9999C24.3055 19.0535 18.8787 24.4803 18.8787 31.1747V116.023C18.8787 122.718 24.3055 128.144 30.9999 128.144H115.848C122.543 128.144 127.97 122.718 127.97 116.023V31.1747C127.97 24.4803 122.543 19.0535 115.848 19.0535Z" fill="#CDD6D7"/>
<path d="M52.212 61.4778C57.2328 61.4778 61.3029 57.4077 61.3029 52.3869C61.3029 47.3662 57.2328 43.296 52.212 43.296C47.1912 43.296 43.1211 47.3662 43.1211 52.3869C43.1211 57.4077 47.1912 61.4778 52.212 61.4778Z" stroke="white" stroke-width="3.0303" stroke-linecap="round" stroke-linejoin="round"/>
<path d="M127.969 91.7809L97.6664 61.4778L30.9998 128.144" stroke="white" stroke-width="3.0303" stroke-linecap="round" stroke-linejoin="round"/>
</svg>
